<?xml version="1.0" encoding="UTF-8" standalone="no"?>
<!DOCTYPE svg PUBLIC "-//W3C//DTD SVG 1.1//EN" "http://www.w3.org/Graphics/SVG/1.1/DTD/svg11.dtd">
<svg width="100%" height="100%" viewBox="0 0 954 480" version="1.1" xmlns="http://www.w3.org/2000/svg" xmlns:xlink="http://www.w3.org/1999/xlink" xml:space="preserve" xmlns:serif="http://www.serif.com/" style="fill-rule:evenodd;clip-rule:evenodd;stroke-linejoin:round;stroke-miterlimit:2;">
    <g transform="matrix(1,0,0,1,0,-23.56)">
        <path d="M266.66,416.36L0,293.67L0,249.13L266.66,120.11L266.66,186.77L75.86,270.39L75.86,271.83L266.66,349.7L266.66,416.36Z" style="fill-rule:nonzero;"/>
    </g>
    <g transform="matrix(1,0,0,1,0,-23.56)">
        <path d="M614.63,23.56L414.35,503.43L335.9,503.43L535.61,23.56L614.63,23.56Z" style="fill:rgb(65,103,177);fill-rule:nonzero;"/>
    </g>
    <g transform="matrix(1,0,0,1,0,-23.56)">
        <path d="M953.7,290.22L685.32,412.63L685.32,346.25L877.84,268.95L877.84,267.8L685.32,184.47L685.32,116.94L953.7,245.68L953.7,290.22Z" style="fill-rule:nonzero;"/>
    </g>
</svg>
