<?xml version="1.0" encoding="UTF-8" standalone="no"?>
<!DOCTYPE svg PUBLIC "-//W3C//DTD SVG 1.1//EN" "http://www.w3.org/Graphics/SVG/1.1/DTD/svg11.dtd">
<svg width="100%" height="100%" viewBox="0 0 391 88" version="1.1" xmlns="http://www.w3.org/2000/svg" xmlns:xlink="http://www.w3.org/1999/xlink" xml:space="preserve" xmlns:serif="http://www.serif.com/" style="fill-rule:evenodd;clip-rule:evenodd;stroke-linejoin:round;stroke-miterlimit:2;">
    <g transform="matrix(7.97477,0,0,7.97477,-431.707,-950.744)">
        <clipPath id="_clip1">
            <rect x="54.134" y="119.219" width="49.128" height="10.875"/>
        </clipPath>
        <g clip-path="url(#_clip1)">
            <rect x="53.968" y="117.436" width="49.128" height="14.4" style="fill:white;fill-opacity:0;"/>
            <g transform="matrix(12,0,0,12,53.9683,128.836)">
                <path d="M0.068,-0L0.068,-0.7L0.245,-0.7L0.431,-0.424L0.618,-0.7L0.795,-0.7L0.795,-0L0.634,-0L0.634,-0.45L0.432,-0.154L0.229,-0.45L0.229,-0L0.068,-0Z" style="fill:rgb(244,48,152);fill-rule:nonzero;"/>
            </g>
            <g transform="matrix(12,0,0,12,64.3243,128.836)">
                <path d="M0.291,0.012C0.239,0.012 0.193,0.001 0.153,-0.021C0.113,-0.043 0.082,-0.074 0.059,-0.114C0.036,-0.153 0.025,-0.198 0.025,-0.25C0.025,-0.302 0.036,-0.347 0.059,-0.387C0.082,-0.426 0.114,-0.457 0.154,-0.479C0.194,-0.501 0.24,-0.512 0.293,-0.512C0.34,-0.512 0.383,-0.501 0.421,-0.478C0.459,-0.455 0.489,-0.422 0.512,-0.377C0.534,-0.332 0.545,-0.276 0.545,-0.21L0.169,-0.21L0.186,-0.229C0.186,-0.206 0.19,-0.186 0.2,-0.169C0.209,-0.152 0.222,-0.138 0.239,-0.129C0.255,-0.12 0.274,-0.116 0.295,-0.116C0.32,-0.116 0.34,-0.121 0.357,-0.132C0.374,-0.143 0.386,-0.157 0.393,-0.174L0.531,-0.127C0.518,-0.095 0.499,-0.069 0.475,-0.049C0.45,-0.028 0.422,-0.013 0.391,-0.003C0.359,0.007 0.326,0.012 0.291,0.012ZM0.19,-0.294L0.174,-0.314L0.398,-0.314L0.384,-0.294C0.384,-0.319 0.379,-0.338 0.369,-0.353C0.359,-0.367 0.346,-0.378 0.332,-0.384C0.317,-0.391 0.302,-0.394 0.288,-0.394C0.273,-0.394 0.258,-0.391 0.243,-0.384C0.228,-0.378 0.215,-0.367 0.205,-0.353C0.195,-0.338 0.19,-0.319 0.19,-0.294Z" style="fill:rgb(244,48,152);fill-rule:nonzero;"/>
            </g>
            <g transform="matrix(12,0,0,12,71.0443,128.836)">
            </g>
            <g transform="matrix(12,0,0,12,73.8523,128.836)">
            </g>
            <g transform="matrix(12,0,0,12,77.7166,128.836)">
                <path d="M0.266,0.012C0.207,0.012 0.163,-0.002 0.134,-0.031C0.104,-0.059 0.09,-0.099 0.09,-0.152L0.09,-0.656L0.246,-0.656L0.246,-0.191C0.246,-0.171 0.249,-0.156 0.257,-0.147C0.264,-0.137 0.276,-0.133 0.291,-0.133C0.297,-0.133 0.304,-0.134 0.312,-0.137C0.32,-0.14 0.327,-0.144 0.334,-0.149L0.388,-0.035C0.372,-0.022 0.353,-0.011 0.331,-0.002C0.308,0.007 0.287,0.012 0.266,0.012ZM0.012,-0.369L0.012,-0.5L0.36,-0.5L0.36,-0.369L0.012,-0.369Z" style="fill:rgb(244,48,152);fill-rule:nonzero;"/>
            </g>
            <g transform="matrix(12,0,0,12,82.6846,128.836)">
                <path d="M0.166,-0.259C0.166,-0.313 0.177,-0.358 0.199,-0.394C0.22,-0.43 0.247,-0.457 0.28,-0.475C0.313,-0.493 0.348,-0.502 0.384,-0.502L0.384,-0.35C0.353,-0.35 0.324,-0.347 0.297,-0.34C0.27,-0.334 0.248,-0.323 0.232,-0.31C0.215,-0.296 0.207,-0.278 0.207,-0.257L0.166,-0.259ZM0.051,-0L0.051,-0.5L0.207,-0.5L0.207,-0L0.051,-0Z" style="fill:rgb(244,48,152);fill-rule:nonzero;"/>
            </g>
            <g transform="matrix(12,0,0,12,87.4606,128.836)">
                <path d="M0.06,-0L0.06,-0.5L0.216,-0.5L0.216,-0L0.06,-0ZM0.138,-0.564C0.115,-0.564 0.094,-0.573 0.076,-0.591C0.059,-0.608 0.05,-0.629 0.05,-0.652C0.05,-0.677 0.059,-0.697 0.076,-0.715C0.094,-0.732 0.115,-0.74 0.138,-0.74C0.162,-0.74 0.183,-0.732 0.2,-0.715C0.217,-0.697 0.226,-0.677 0.226,-0.652C0.226,-0.629 0.217,-0.608 0.2,-0.591C0.183,-0.573 0.162,-0.564 0.138,-0.564Z" style="fill:rgb(244,48,152);fill-rule:nonzero;"/>
            </g>
            <g transform="matrix(12,0,0,12,90.7726,128.836)">
                <path d="M0.3,0.012C0.246,0.012 0.199,0.001 0.158,-0.022C0.116,-0.044 0.084,-0.075 0.06,-0.114C0.037,-0.154 0.025,-0.199 0.025,-0.25C0.025,-0.301 0.037,-0.347 0.06,-0.386C0.083,-0.425 0.116,-0.456 0.157,-0.479C0.198,-0.501 0.245,-0.512 0.298,-0.512C0.349,-0.512 0.396,-0.499 0.439,-0.473C0.482,-0.447 0.512,-0.409 0.531,-0.36L0.383,-0.31C0.376,-0.326 0.364,-0.34 0.347,-0.35C0.33,-0.36 0.311,-0.365 0.29,-0.365C0.269,-0.365 0.251,-0.36 0.236,-0.351C0.22,-0.341 0.208,-0.327 0.199,-0.31C0.19,-0.292 0.185,-0.273 0.185,-0.25C0.185,-0.227 0.19,-0.208 0.199,-0.191C0.208,-0.173 0.22,-0.16 0.237,-0.15C0.253,-0.14 0.271,-0.135 0.292,-0.135C0.312,-0.135 0.331,-0.14 0.348,-0.151C0.365,-0.161 0.377,-0.175 0.385,-0.193L0.533,-0.143C0.514,-0.093 0.483,-0.055 0.441,-0.028C0.399,-0.001 0.352,0.012 0.3,0.012Z" style="fill:rgb(244,48,152);fill-rule:nonzero;"/>
            </g>
            <g transform="matrix(12,0,0,12,97.3486,128.836)">
                <path d="M0.239,0.012C0.206,0.012 0.176,0.007 0.148,-0.002C0.119,-0.012 0.095,-0.025 0.074,-0.043C0.053,-0.061 0.038,-0.082 0.028,-0.108L0.156,-0.162C0.164,-0.145 0.176,-0.132 0.192,-0.124C0.207,-0.115 0.223,-0.111 0.239,-0.111C0.255,-0.111 0.268,-0.114 0.278,-0.119C0.287,-0.125 0.292,-0.133 0.292,-0.143C0.292,-0.154 0.287,-0.162 0.277,-0.168C0.268,-0.174 0.254,-0.179 0.236,-0.184L0.193,-0.195C0.146,-0.206 0.11,-0.226 0.085,-0.254C0.06,-0.282 0.048,-0.314 0.048,-0.351C0.048,-0.402 0.065,-0.442 0.101,-0.47C0.136,-0.498 0.185,-0.512 0.248,-0.512C0.283,-0.512 0.314,-0.507 0.341,-0.498C0.368,-0.488 0.391,-0.475 0.409,-0.458C0.427,-0.441 0.441,-0.421 0.449,-0.399L0.325,-0.348C0.32,-0.361 0.311,-0.371 0.296,-0.378C0.282,-0.385 0.266,-0.389 0.249,-0.389C0.234,-0.389 0.223,-0.386 0.215,-0.379C0.207,-0.373 0.203,-0.364 0.203,-0.354C0.203,-0.346 0.208,-0.339 0.217,-0.333C0.227,-0.327 0.241,-0.322 0.26,-0.318L0.313,-0.305C0.344,-0.297 0.371,-0.285 0.392,-0.269C0.413,-0.252 0.429,-0.233 0.44,-0.211C0.451,-0.189 0.456,-0.166 0.456,-0.142C0.456,-0.11 0.447,-0.083 0.428,-0.06C0.41,-0.037 0.384,-0.019 0.352,-0.007C0.319,0.006 0.282,0.012 0.239,0.012Z" style="fill:rgb(244,48,152);fill-rule:nonzero;"/>
            </g>
            <g transform="matrix(12,0,0,12,103.097,128.836)">
            </g>
        </g>
    </g>
    <g transform="matrix(1,0,0,1,-43.1002,-142.627)">
        <clipPath id="_clip2">
            <rect x="175.397" y="148.307" width="53.59" height="81.437"/>
        </clipPath>
        <g clip-path="url(#_clip2)">
            <rect x="175.397" y="114.908" width="53.59" height="114.837" style="fill:white;fill-opacity:0;"/>
            <g transform="matrix(95.6972,0,0,95.6972,175.397,205.82)">
                <path d="M0.291,0.012C0.239,0.012 0.193,0.001 0.153,-0.021C0.113,-0.043 0.082,-0.074 0.059,-0.114C0.036,-0.153 0.025,-0.198 0.025,-0.25C0.025,-0.302 0.036,-0.347 0.059,-0.387C0.082,-0.426 0.114,-0.457 0.154,-0.479C0.194,-0.501 0.24,-0.512 0.293,-0.512C0.34,-0.512 0.383,-0.501 0.421,-0.478C0.459,-0.455 0.489,-0.422 0.512,-0.377C0.534,-0.332 0.545,-0.276 0.545,-0.21L0.169,-0.21L0.186,-0.229C0.186,-0.206 0.19,-0.186 0.2,-0.169C0.209,-0.152 0.222,-0.138 0.239,-0.129C0.255,-0.12 0.274,-0.116 0.295,-0.116C0.32,-0.116 0.34,-0.121 0.357,-0.132C0.374,-0.143 0.386,-0.157 0.393,-0.174L0.531,-0.127C0.518,-0.095 0.499,-0.069 0.475,-0.049C0.45,-0.028 0.422,-0.013 0.391,-0.003C0.359,0.007 0.326,0.012 0.291,0.012ZM0.19,-0.294L0.174,-0.314L0.398,-0.314L0.384,-0.294C0.384,-0.319 0.379,-0.338 0.369,-0.353C0.359,-0.367 0.346,-0.378 0.332,-0.384C0.317,-0.391 0.302,-0.394 0.288,-0.394C0.273,-0.394 0.258,-0.391 0.243,-0.384C0.228,-0.378 0.215,-0.367 0.205,-0.353C0.195,-0.338 0.19,-0.319 0.19,-0.294Z" style="fill:rgb(0,186,254);fill-rule:nonzero;"/>
            </g>
            <g transform="matrix(95.6972,0,0,95.6972,228.987,205.82)">
            </g>
        </g>
    </g>
</svg>
