<?xml version="1.0" encoding="UTF-8" standalone="no"?>
<!DOCTYPE svg PUBLIC "-//W3C//DTD SVG 1.1//EN" "http://www.w3.org/Graphics/SVG/1.1/DTD/svg11.dtd">
<svg width="100%" height="100%" viewBox="0 0 200 200" version="1.1" xmlns="http://www.w3.org/2000/svg" xmlns:xlink="http://www.w3.org/1999/xlink" xml:space="preserve" xmlns:serif="http://www.serif.com/" style="fill-rule:evenodd;clip-rule:evenodd;stroke-linejoin:round;stroke-miterlimit:2;">
    <g transform="matrix(9.64888,0,0,9.64888,-16.6727,-15.7756)">
        <path d="M21.005,3C21.554,3 22.005,3.451 22.005,4L22.005,9.5C20.634,9.5 19.505,10.629 19.505,12C19.505,13.371 20.634,14.5 22.005,14.5L22.005,20C22.005,20.549 21.554,21 21.005,21L3.005,21C2.456,21 2.005,20.549 2.005,20L2.005,14.5C3.376,14.5 4.505,13.371 4.505,12C4.505,10.629 3.376,9.5 2.005,9.5L2.005,4C2.005,3.451 2.456,3 3.005,3L21.005,3Z" style="fill:rgb(50,142,110);fill-rule:nonzero;"/>
    </g>
    <g transform="matrix(1,0,0,1,-1.25575,0)">
        <g transform="matrix(0.625327,0,0,0.625327,55.2942,81.4633)">
            <g transform="matrix(3.05631,0,0,3.05631,97.6342,22.483)">
                <circle cx="7" cy="7" r="5" style="fill:rgb(223,236,87);fill-opacity:0.5;"/>
            </g>
            <g transform="matrix(3.05631,0,0,3.05631,97.6342,22.483)">
                <path d="M16.286,20C19.442,20 22,17.472 22,14.353C22,11.881 20.393,9.78 18.155,9.015C17.837,6.194 15.415,4 12.476,4C9.32,4 6.762,6.528 6.762,9.647C6.762,10.337 6.887,10.997 7.116,11.609C6.842,11.556 6.565,11.529 6.286,11.529C3.919,11.53 2,13.426 2,15.765C2,18.104 3.919,20 6.286,20L16.286,20Z" style="fill:rgb(223,236,87);fill-rule:nonzero;"/>
            </g>
        </g>
        <g transform="matrix(-9.13542e-17,-0.522165,0.522165,-1.37031e-16,78.1489,173.611)">
            <g transform="matrix(200,0,0,200,192.588,74.4268)">
            </g>
            <text x="59.788px" y="74.427px" style="font-family:'IBMPlexSans-SmBld', 'IBM Plex Sans', sans-serif;font-weight:600;font-size:200px;fill:rgb(225,238,188);">R</text>
        </g>
        <g transform="matrix(-5.55112e-17,-0.860221,0.219075,-1.11022e-16,97.0664,151.626)">
            <g transform="matrix(200,0,0,200,72.3439,65.2557)">
            </g>
            <text x="15.344px" y="65.256px" style="font-family:'IBMPlexSans-Light', 'IBM Plex Sans', sans-serif;font-weight:300;font-size:200px;fill:rgb(225,238,188);">|</text>
        </g>
    </g>
</svg>
