<?xml version="1.0" encoding="UTF-8" standalone="no"?>
<!DOCTYPE svg PUBLIC "-//W3C//DTD SVG 1.1//EN" "http://www.w3.org/Graphics/SVG/1.1/DTD/svg11.dtd">
<svg width="100%" height="100%" viewBox="0 0 752 175" version="1.1" xmlns="http://www.w3.org/2000/svg" xmlns:xlink="http://www.w3.org/1999/xlink" xml:space="preserve" xmlns:serif="http://www.serif.com/" style="fill-rule:evenodd;clip-rule:evenodd;stroke-linejoin:round;stroke-miterlimit:2;">
    <g transform="matrix(1,0,0,1,-69.2099,-19.0966)">
        <g transform="matrix(180,0,0,180,71.3333,160)">
            <path d="M0.974,-0.708L0.974,-0.688C0.959,-0.683 0.944,-0.671 0.928,-0.653C0.912,-0.635 0.898,-0.607 0.886,-0.569L0.71,0.002C0.704,0.002 0.699,0.001 0.693,0.001C0.687,0.001 0.681,0.001 0.675,0.001C0.669,0.001 0.663,0.001 0.657,0.001C0.651,0.001 0.646,0.002 0.64,0.002L0.43,-0.634C0.423,-0.655 0.415,-0.669 0.405,-0.676C0.396,-0.683 0.386,-0.687 0.375,-0.688L0.375,-0.708C0.394,-0.707 0.416,-0.707 0.441,-0.706C0.467,-0.705 0.493,-0.705 0.518,-0.705C0.547,-0.705 0.575,-0.705 0.6,-0.706C0.626,-0.707 0.647,-0.707 0.662,-0.708L0.662,-0.688C0.642,-0.687 0.626,-0.685 0.614,-0.681C0.603,-0.677 0.596,-0.669 0.595,-0.658C0.593,-0.646 0.596,-0.628 0.604,-0.604L0.746,-0.17L0.723,-0.129L0.836,-0.488C0.852,-0.539 0.86,-0.578 0.859,-0.607C0.858,-0.636 0.851,-0.656 0.836,-0.669C0.821,-0.681 0.8,-0.687 0.773,-0.688L0.773,-0.708C0.796,-0.707 0.817,-0.707 0.837,-0.706C0.857,-0.705 0.877,-0.705 0.897,-0.705C0.912,-0.705 0.926,-0.705 0.939,-0.706C0.952,-0.707 0.964,-0.707 0.974,-0.708ZM0.26,-0.708L0.26,-0.688C0.246,-0.686 0.237,-0.681 0.232,-0.674C0.226,-0.666 0.224,-0.656 0.226,-0.644C0.227,-0.631 0.23,-0.618 0.234,-0.604L0.387,-0.16L0.36,-0.124L0.488,-0.498L0.502,-0.471L0.345,0.002C0.339,0.002 0.334,0.001 0.328,0.001C0.322,0.001 0.316,0.001 0.31,0.001C0.304,0.001 0.298,0.001 0.292,0.001C0.286,0.001 0.281,0.002 0.275,0.002L0.051,-0.624C0.043,-0.648 0.032,-0.665 0.021,-0.674C0.009,-0.683 -0.002,-0.687 -0.012,-0.688L-0.012,-0.708C0.008,-0.707 0.031,-0.707 0.059,-0.706C0.086,-0.705 0.112,-0.705 0.137,-0.705C0.164,-0.705 0.187,-0.705 0.209,-0.706C0.23,-0.707 0.247,-0.707 0.26,-0.708Z" style="fill-rule:nonzero;"/>
        </g>
        <g transform="matrix(180,0,0,180,236.933,160)">
            <path d="M0.368,-0.531C0.389,-0.531 0.407,-0.527 0.42,-0.518C0.434,-0.509 0.444,-0.497 0.45,-0.483C0.456,-0.469 0.459,-0.454 0.459,-0.439C0.459,-0.415 0.452,-0.394 0.438,-0.379C0.423,-0.363 0.405,-0.355 0.381,-0.355C0.358,-0.355 0.34,-0.361 0.327,-0.373C0.313,-0.384 0.307,-0.4 0.307,-0.419C0.307,-0.438 0.311,-0.453 0.32,-0.466C0.328,-0.478 0.339,-0.488 0.351,-0.497C0.342,-0.499 0.333,-0.499 0.323,-0.496C0.31,-0.494 0.298,-0.489 0.287,-0.481C0.275,-0.472 0.266,-0.462 0.258,-0.449C0.25,-0.437 0.243,-0.424 0.239,-0.409C0.234,-0.395 0.232,-0.381 0.232,-0.368L0.232,-0.103C0.232,-0.071 0.24,-0.049 0.256,-0.038C0.271,-0.027 0.295,-0.021 0.326,-0.021L0.326,-0C0.311,-0.001 0.289,-0.002 0.259,-0.003C0.23,-0.004 0.199,-0.004 0.167,-0.004C0.14,-0.004 0.113,-0.004 0.086,-0.003C0.058,-0.002 0.038,-0.001 0.024,-0L0.024,-0.021C0.048,-0.021 0.064,-0.026 0.074,-0.036C0.083,-0.046 0.088,-0.065 0.088,-0.093L0.088,-0.408C0.088,-0.438 0.084,-0.461 0.075,-0.475C0.066,-0.489 0.049,-0.496 0.024,-0.496L0.024,-0.517C0.046,-0.515 0.066,-0.514 0.086,-0.514C0.114,-0.514 0.14,-0.516 0.165,-0.518C0.189,-0.52 0.212,-0.524 0.232,-0.528L0.232,-0.435C0.24,-0.453 0.251,-0.47 0.264,-0.484C0.277,-0.499 0.292,-0.51 0.31,-0.519C0.327,-0.527 0.347,-0.531 0.368,-0.531Z" style="fill-rule:nonzero;"/>
        </g>
        <g transform="matrix(180,0,0,180,318.473,160)">
            <path d="M0.282,-0.531C0.331,-0.531 0.373,-0.522 0.41,-0.504C0.446,-0.486 0.475,-0.457 0.496,-0.417C0.517,-0.377 0.527,-0.324 0.527,-0.258C0.527,-0.192 0.517,-0.139 0.496,-0.099C0.475,-0.06 0.446,-0.031 0.41,-0.013C0.373,0.005 0.331,0.014 0.282,0.014C0.235,0.014 0.193,0.005 0.156,-0.013C0.119,-0.031 0.09,-0.06 0.069,-0.099C0.048,-0.139 0.037,-0.192 0.037,-0.258C0.037,-0.324 0.048,-0.377 0.069,-0.417C0.09,-0.457 0.119,-0.486 0.156,-0.504C0.193,-0.522 0.235,-0.531 0.282,-0.531ZM0.282,-0.511C0.255,-0.511 0.233,-0.492 0.215,-0.452C0.197,-0.412 0.188,-0.348 0.188,-0.258C0.188,-0.169 0.197,-0.105 0.215,-0.065C0.233,-0.026 0.255,-0.006 0.282,-0.006C0.31,-0.006 0.332,-0.026 0.35,-0.065C0.368,-0.105 0.376,-0.169 0.376,-0.258C0.376,-0.348 0.368,-0.412 0.35,-0.452C0.332,-0.492 0.31,-0.511 0.282,-0.511Z" style="fill-rule:nonzero;"/>
        </g>
        <g transform="matrix(180,0,0,180,420.173,160)">
            <path d="M0.396,-0.531C0.424,-0.531 0.447,-0.528 0.465,-0.521C0.482,-0.513 0.496,-0.504 0.506,-0.492C0.517,-0.48 0.525,-0.463 0.53,-0.443C0.535,-0.423 0.537,-0.396 0.537,-0.362L0.537,-0.093C0.537,-0.065 0.542,-0.046 0.552,-0.036C0.561,-0.026 0.578,-0.021 0.601,-0.021L0.601,-0C0.589,-0.001 0.57,-0.002 0.544,-0.003C0.519,-0.004 0.494,-0.004 0.469,-0.004C0.444,-0.004 0.419,-0.004 0.394,-0.003C0.37,-0.002 0.351,-0.001 0.339,-0L0.339,-0.021C0.359,-0.021 0.373,-0.026 0.381,-0.036C0.389,-0.046 0.393,-0.065 0.393,-0.093L0.393,-0.404C0.393,-0.42 0.392,-0.435 0.388,-0.447C0.385,-0.46 0.379,-0.47 0.37,-0.477C0.361,-0.484 0.348,-0.487 0.331,-0.487C0.313,-0.487 0.296,-0.482 0.281,-0.472C0.266,-0.462 0.254,-0.449 0.246,-0.431C0.237,-0.413 0.232,-0.393 0.232,-0.371L0.232,-0.093C0.232,-0.065 0.236,-0.046 0.245,-0.036C0.253,-0.026 0.267,-0.021 0.286,-0.021L0.286,-0C0.274,-0.001 0.257,-0.002 0.234,-0.003C0.21,-0.004 0.187,-0.004 0.162,-0.004C0.137,-0.004 0.111,-0.004 0.084,-0.003C0.057,-0.002 0.038,-0.001 0.024,-0L0.024,-0.021C0.048,-0.021 0.064,-0.026 0.074,-0.036C0.083,-0.046 0.088,-0.065 0.088,-0.093L0.088,-0.408C0.088,-0.438 0.084,-0.461 0.075,-0.475C0.066,-0.489 0.049,-0.496 0.024,-0.496L0.024,-0.517C0.046,-0.515 0.066,-0.514 0.086,-0.514C0.114,-0.514 0.14,-0.516 0.165,-0.518C0.189,-0.52 0.212,-0.524 0.232,-0.528L0.232,-0.438C0.249,-0.472 0.271,-0.496 0.3,-0.51C0.328,-0.524 0.36,-0.531 0.396,-0.531Z" style="fill-rule:nonzero;"/>
        </g>
        <g transform="matrix(180,0,0,180,529.433,160)">
            <path d="M0.218,0.188C0.176,0.188 0.14,0.184 0.107,0.177C0.075,0.17 0.05,0.16 0.031,0.146C0.013,0.131 0.004,0.114 0.004,0.093C0.004,0.073 0.013,0.054 0.032,0.038C0.05,0.021 0.078,0.008 0.115,-0.001L0.124,0.015C0.112,0.025 0.103,0.035 0.097,0.047C0.091,0.059 0.088,0.071 0.088,0.084C0.088,0.112 0.101,0.133 0.127,0.148C0.152,0.163 0.187,0.171 0.231,0.171C0.261,0.171 0.287,0.167 0.311,0.159C0.335,0.151 0.353,0.139 0.367,0.123C0.381,0.107 0.388,0.087 0.388,0.064C0.388,0.044 0.38,0.028 0.366,0.014C0.351,0 0.322,-0.007 0.278,-0.007L0.216,-0.007C0.189,-0.007 0.165,-0.01 0.145,-0.016C0.124,-0.022 0.108,-0.032 0.097,-0.045C0.085,-0.057 0.08,-0.074 0.08,-0.094C0.08,-0.122 0.091,-0.147 0.113,-0.168C0.135,-0.189 0.168,-0.209 0.211,-0.228L0.221,-0.22C0.208,-0.212 0.196,-0.204 0.185,-0.195C0.174,-0.186 0.169,-0.174 0.169,-0.16C0.169,-0.139 0.182,-0.128 0.209,-0.128L0.318,-0.128C0.355,-0.128 0.388,-0.124 0.417,-0.115C0.446,-0.106 0.468,-0.092 0.485,-0.072C0.502,-0.053 0.511,-0.027 0.511,0.004C0.511,0.037 0.5,0.067 0.479,0.095C0.458,0.123 0.426,0.146 0.383,0.163C0.34,0.18 0.285,0.188 0.218,0.188ZM0.228,-0.213C0.19,-0.213 0.156,-0.219 0.126,-0.23C0.096,-0.241 0.073,-0.258 0.055,-0.282C0.038,-0.305 0.029,-0.336 0.029,-0.372C0.029,-0.409 0.038,-0.439 0.055,-0.463C0.073,-0.486 0.096,-0.503 0.126,-0.515C0.156,-0.526 0.19,-0.531 0.228,-0.531C0.266,-0.531 0.3,-0.526 0.33,-0.515C0.36,-0.503 0.384,-0.486 0.401,-0.463C0.419,-0.439 0.427,-0.409 0.427,-0.372C0.427,-0.336 0.419,-0.305 0.401,-0.282C0.384,-0.258 0.36,-0.241 0.33,-0.23C0.3,-0.219 0.266,-0.213 0.228,-0.213ZM0.228,-0.231C0.246,-0.231 0.26,-0.241 0.27,-0.262C0.28,-0.282 0.285,-0.319 0.285,-0.372C0.285,-0.426 0.28,-0.462 0.27,-0.483C0.26,-0.503 0.246,-0.513 0.228,-0.513C0.211,-0.513 0.197,-0.503 0.187,-0.483C0.176,-0.462 0.171,-0.426 0.171,-0.372C0.171,-0.319 0.176,-0.282 0.187,-0.262C0.197,-0.241 0.211,-0.231 0.228,-0.231ZM0.384,-0.445L0.364,-0.452C0.374,-0.478 0.39,-0.5 0.413,-0.517C0.435,-0.534 0.459,-0.543 0.485,-0.543C0.506,-0.543 0.522,-0.537 0.533,-0.525C0.544,-0.514 0.55,-0.499 0.55,-0.48C0.55,-0.46 0.544,-0.445 0.534,-0.435C0.523,-0.426 0.511,-0.421 0.498,-0.421C0.486,-0.421 0.476,-0.425 0.466,-0.433C0.456,-0.441 0.451,-0.453 0.45,-0.47C0.448,-0.486 0.454,-0.507 0.467,-0.533L0.474,-0.527C0.449,-0.518 0.43,-0.507 0.417,-0.495C0.404,-0.483 0.393,-0.466 0.384,-0.445Z" style="fill-rule:nonzero;"/>
        </g>
        <g transform="matrix(180,0,0,180,626.093,160)">
            <path d="M0.282,-0.531C0.34,-0.531 0.386,-0.514 0.42,-0.479C0.453,-0.444 0.47,-0.388 0.47,-0.309L0.141,-0.309L0.139,-0.328L0.344,-0.328C0.345,-0.361 0.343,-0.391 0.338,-0.419C0.334,-0.446 0.326,-0.468 0.316,-0.485C0.306,-0.502 0.292,-0.51 0.276,-0.51C0.253,-0.51 0.233,-0.495 0.217,-0.466C0.201,-0.437 0.19,-0.388 0.187,-0.32L0.19,-0.314C0.189,-0.306 0.189,-0.298 0.188,-0.289C0.188,-0.28 0.188,-0.271 0.188,-0.262C0.188,-0.216 0.194,-0.178 0.207,-0.15C0.22,-0.121 0.237,-0.1 0.257,-0.087C0.277,-0.075 0.297,-0.068 0.318,-0.068C0.332,-0.068 0.346,-0.07 0.361,-0.074C0.376,-0.079 0.391,-0.086 0.407,-0.098C0.422,-0.11 0.436,-0.127 0.45,-0.148L0.468,-0.142C0.46,-0.117 0.448,-0.092 0.43,-0.068C0.413,-0.044 0.391,-0.024 0.364,-0.009C0.337,0.006 0.305,0.014 0.268,0.014C0.223,0.014 0.183,0.004 0.148,-0.015C0.114,-0.034 0.086,-0.063 0.067,-0.103C0.047,-0.143 0.037,-0.193 0.037,-0.253C0.037,-0.315 0.048,-0.367 0.069,-0.408C0.09,-0.449 0.119,-0.48 0.156,-0.501C0.193,-0.521 0.235,-0.531 0.282,-0.531Z" style="fill-rule:nonzero;"/>
        </g>
        <g transform="matrix(180,0,0,180,716.813,160)">
            <path d="M0.516,-0.783L0.516,-0.11C0.516,-0.08 0.52,-0.057 0.53,-0.043C0.539,-0.029 0.556,-0.022 0.58,-0.022L0.58,-0.001C0.559,-0.003 0.538,-0.004 0.518,-0.004C0.49,-0.004 0.464,-0.003 0.44,-0.001C0.416,0.001 0.393,0.005 0.372,0.01L0.372,-0.663C0.372,-0.693 0.367,-0.715 0.358,-0.729C0.349,-0.744 0.332,-0.751 0.308,-0.751L0.308,-0.772C0.329,-0.77 0.35,-0.769 0.37,-0.769C0.398,-0.769 0.424,-0.77 0.448,-0.772C0.473,-0.775 0.495,-0.778 0.516,-0.783ZM0.261,-0.531C0.291,-0.531 0.317,-0.527 0.339,-0.517C0.361,-0.507 0.379,-0.491 0.391,-0.468L0.379,-0.457C0.37,-0.473 0.359,-0.484 0.345,-0.492C0.33,-0.499 0.315,-0.502 0.299,-0.502C0.265,-0.502 0.238,-0.482 0.218,-0.443C0.198,-0.403 0.189,-0.341 0.189,-0.259C0.189,-0.202 0.193,-0.157 0.2,-0.123C0.208,-0.089 0.219,-0.065 0.234,-0.051C0.248,-0.036 0.264,-0.029 0.283,-0.029C0.306,-0.029 0.326,-0.038 0.344,-0.056C0.362,-0.074 0.372,-0.098 0.373,-0.129L0.378,-0.094C0.368,-0.059 0.352,-0.032 0.329,-0.014C0.307,0.005 0.278,0.014 0.242,0.014C0.202,0.014 0.167,0.004 0.136,-0.015C0.105,-0.035 0.081,-0.064 0.064,-0.105C0.046,-0.145 0.038,-0.197 0.038,-0.261C0.038,-0.321 0.047,-0.372 0.067,-0.412C0.086,-0.451 0.113,-0.481 0.147,-0.501C0.18,-0.521 0.219,-0.531 0.261,-0.531Z" style="fill-rule:nonzero;"/>
        </g>
        <g transform="matrix(180,0,0,180,824.453,160)">
        </g>
    </g>
</svg>
