<?xml version="1.0" encoding="UTF-8" standalone="no"?>
<!DOCTYPE svg PUBLIC "-//W3C//DTD SVG 1.1//EN" "http://www.w3.org/Graphics/SVG/1.1/DTD/svg11.dtd">
<svg width="100%" height="100%" viewBox="0 0 200 200" version="1.1" xmlns="http://www.w3.org/2000/svg" xmlns:xlink="http://www.w3.org/1999/xlink" xml:space="preserve" xmlns:serif="http://www.serif.com/" style="fill-rule:evenodd;clip-rule:evenodd;stroke-linejoin:round;stroke-miterlimit:2;">
    <g transform="matrix(1,0,0,1,-860.443,-166.53)">
        <g transform="matrix(1,0,0,1,0,-100)">
            <g transform="matrix(1,0,0,1,-339.557,66.5295)">
                <g id="Layer1">
                    <path d="M1400,200C1400,255.228 1355.23,300 1300,300C1300,244.772 1344.77,200 1400,200ZM1200,400C1200,344.772 1244.77,300 1300,300C1300,355.228 1255.23,400 1200,400ZM1300,300C1244.77,300 1200,255.228 1200,200C1255.23,200 1300,244.772 1300,300ZM1300,300C1355.23,300 1400,344.772 1400,400C1344.77,400 1300,355.228 1300,300Z" style="fill:rgb(17,23,71);"/>
                    <clipPath id="_clip1">
                        <path d="M1400,200C1400,255.228 1355.23,300 1300,300C1300,244.772 1344.77,200 1400,200ZM1200,400C1200,344.772 1244.77,300 1300,300C1300,355.228 1255.23,400 1200,400ZM1300,300C1244.77,300 1200,255.228 1200,200C1255.23,200 1300,244.772 1300,300ZM1300,300C1355.23,300 1400,344.772 1400,400C1344.77,400 1300,355.228 1300,300Z"/>
                    </clipPath>
                    <g clip-path="url(#_clip1)">
                        <g transform="matrix(1,0,0,1,216.931,-11.1111)">
                            <path d="M1083.07,311.111C1138.3,311.111 1183.07,355.883 1183.07,411.111C1127.84,411.111 1083.07,366.34 1083.07,311.111Z" style="fill:rgb(255,0,0);"/>
                        </g>
                        <g transform="matrix(1,0,0,1,216.931,-11.1111)">
                            <path d="M1083.07,311.111C1027.84,311.111 983.069,266.34 983.069,211.111C1038.3,211.111 1083.07,255.883 1083.07,311.111Z" style="fill:rgb(255,0,0);"/>
                        </g>
                    </g>
                </g>
            </g>
        </g>
    </g>
</svg>
