<?xml version="1.0" encoding="iso-8859-1"?>
<!-- Uploaded to: SVG Repo, www.svgrepo.com, Generator: SVG Repo Mixer Tools #FF725E #7CCC92-->
<svg height="4rem" width="4rem" version="1.1" id="Layer_1" xmlns="http://www.w3.org/2000/svg" xmlns:xlink="http://www.w3.org/1999/xlink" 
	 viewBox="0 0 512 512" xml:space="preserve">
<path style="fill:#79695A;" d="M183.661,511.803h-66.775c-9.222,0-16.694-7.472-16.694-16.694V350.431
	c0-9.222,7.472-16.694,16.694-16.694h66.775c9.222,0,16.582,7.472,16.582,16.694v144.678
	C200.243,504.331,192.882,511.803,183.661,511.803z"/>
<path style="fill:#6C5B52;" d="M183.661,333.737h-33.387v178.066h33.387c9.222,0,16.582-7.472,16.582-16.694V350.431
	C200.243,341.208,192.882,333.737,183.661,333.737z"/>
<path style="fill:#79695A;" d="M395.114,511.803h-66.775c-9.222,0-16.694-7.472-16.694-16.694V350.431
	c0-9.222,7.472-16.694,16.694-16.694h66.775c9.222,0,16.582,7.472,16.582,16.694v144.678
	C411.696,504.331,404.335,511.803,395.114,511.803z"/>
<path style="fill:#6C5B52;" d="M395.114,333.737h-33.387v178.066h33.387c9.222,0,16.582-7.472,16.582-16.694V350.431
	C411.696,341.208,404.335,333.737,395.114,333.737z"/>
<path style="fill:#ffb5ab;" d="M509.076,341.082l-72.562-107.507h24.039c13.133,0,21.145-14.579,14.134-25.597l-47.299-74.565
	h15.136c14.023,0,21.813-16.248,13.02-27.155L374.746,6.095c-3.226-4.006-8.124-5.898-13.02-5.898c-4.896,0-9.794,1.892-13.02,5.898
	l-80.797,100.162c-8.792,10.907-1.003,27.155,13.02,27.155h15.136l-47.299,74.565c-7.011,11.018,1.002,25.597,14.134,25.597h24.039
	l-72.562,107.507c-7.567,11.129,0.445,26.042,13.8,26.042h267.098C508.63,367.125,516.643,352.211,509.076,341.082z"/>
<path style="fill:#FF725E;" d="M495.276,367.125H361.726V0.197c4.896,0,9.794,1.892,13.02,5.898l80.797,100.162
	c8.792,10.907,1.003,27.155-13.02,27.155h-15.136l47.299,74.565c7.011,11.018-1.002,25.597-14.134,25.597h-24.039l72.562,107.507
	C516.643,352.211,508.63,367.125,495.276,367.125z"/>
<path style="fill:#ffb5ab;" d="M297.623,341.082l-72.562-107.507H249.1c13.133,0,21.145-14.579,14.134-25.597l-47.299-74.565h15.136
	c14.023,0,21.813-16.248,13.02-27.155L163.293,6.095c-3.226-4.006-8.124-5.898-13.02-5.898c-4.896,0-9.794,1.892-13.02,5.898
	L56.456,106.257c-8.792,10.907-1.003,27.155,13.02,27.155h15.136l-47.299,74.565c-7.011,11.018,1.002,25.597,14.134,25.597h24.039
	L2.924,341.082c-7.567,11.129,0.445,26.042,13.8,26.042h267.098C297.178,367.125,305.19,352.211,297.623,341.082z"/>
<path style="fill:#FF725E;" d="M283.823,367.125H150.273V0.197c4.896,0,9.794,1.892,13.02,5.898l80.797,100.162
	c8.792,10.907,1.003,27.155-13.02,27.155h-15.136l47.299,74.565c7.011,11.018-1.002,25.597-14.134,25.597h-24.039l72.562,107.507
	C305.19,352.211,297.178,367.125,283.823,367.125z"/>
<path style="fill:#ffb5ab;" d="M439.63,511.803H83.499c-9.222,0-16.694-7.472-16.694-16.694s7.472-16.694,16.694-16.694H439.63
	c9.222,0,16.694,7.472,16.694,16.694S448.852,511.803,439.63,511.803z"/>
<path style="fill:#FF725E;" d="M439.63,478.416H261.564v33.387H439.63c9.222,0,16.694-7.472,16.694-16.694
	S448.852,478.416,439.63,478.416z"/>
</svg>